<svg xmlns="http://www.w3.org/2000/svg" viewBox="0 0 64 64" aria-labelledby="title"
aria-describedby="desc" role="img" xmlns:xlink="http://www.w3.org/1999/xlink">
  <title>Facebook</title>
  <desc>A line styled icon from Orion Icon Library.</desc>
  <path data-name="layer1"
  d="M56.375 2H7.625A5.642 5.642 0 0 0 2 7.625v48.75A5.642 5.642 0 0 0 7.625 62h26.25V37.625h-6.563V28.25h6.563v-4.687c.152-5.256 1.512-9.932 10.424-10.312h7.389v9.293h-6.247a2.953 2.953 0 0 0-3.129 2.895v2.811h9.375l-1.6 9.375h-7.775V62h14.063A5.642 5.642 0 0 0 62 56.375V7.625A5.642 5.642 0 0 0 56.375 2z"
  fill="none" stroke="#ffffff" stroke-linecap="round" stroke-miterlimit="10"
  stroke-width="2" stroke-linejoin="round"></path>
</svg>